<?xml version="1.0" encoding="UTF-8" standalone="no"?>
<svg
   data-name="Layer 1"
   viewBox="0 0 79 57"
   version="1.1"
   id="svg4"
   sodipodi:docname="board.svg"
   inkscape:version="1.2.2 (b0a8486541, 2022-12-01)"
   width="79"
   height="57"
   xmlns:inkscape="http://www.inkscape.org/namespaces/inkscape"
   xmlns:sodipodi="http://sodipodi.sourceforge.net/DTD/sodipodi-0.dtd"
   xmlns="http://www.w3.org/2000/svg"
   xmlns:svg="http://www.w3.org/2000/svg">
  <defs
     id="defs8" />
  <sodipodi:namedview
     id="namedview6"
     pagecolor="#ffffff"
     bordercolor="#000000"
     borderopacity="0.25"
     inkscape:showpageshadow="2"
     inkscape:pageopacity="0.0"
     inkscape:pagecheckerboard="0"
     inkscape:deskcolor="#d1d1d1"
     showgrid="false"
     inkscape:zoom="10.001283"
     inkscape:cx="27.196512"
     inkscape:cy="40.5448"
     inkscape:window-width="1920"
     inkscape:window-height="1080"
     inkscape:window-x="0"
     inkscape:window-y="0"
     inkscape:window-maximized="1"
     inkscape:current-layer="svg4" />
  <path
     d="M 73.279387,1.0172656 H 6.7959148 A 5.2556936,6.3261661 0 0 0 1.5472195,7.3350076 V 49.453291 a 5.2556936,6.3261661 0 0 0 5.2486953,6.317744 H 73.279387 a 5.2556936,6.3261661 0 0 0 5.248696,-6.317744 V 7.3350076 a 5.2556936,6.3261661 0 0 0 -5.248696,-6.317742 z m 1.749565,48.4360254 a 1.7495651,2.105914 0 0 1 -1.749565,2.105915 H 6.7959148 A 1.7495651,2.105914 0 0 1 5.0463494,49.453291 V 7.3350076 A 1.7495651,2.105914 0 0 1 6.7959148,5.2290956 H 73.279387 a 1.7495651,2.105914 0 0 1 1.749565,2.105912 z M 16.236568,11.546835 h -4.884787 a 1.0567373,1.2719721 0 0 0 -1.056736,1.271974 v 5.879713 a 1.0567373,1.2719721 0 0 0 1.056736,1.271972 h 4.884787 a 1.0567373,1.2719721 0 0 0 1.056735,-1.271972 v -5.879713 a 1.0567373,1.2719721 0 0 0 -1.056735,-1.271974 z m 5.612604,8.423659 h 4.884785 a 1.0567373,1.2719721 0 0 0 1.056736,-1.271972 v -5.879713 a 1.0567373,1.2719721 0 0 0 -1.056736,-1.271974 h -4.884785 a 1.0567373,1.2719721 0 0 0 -1.056737,1.271974 v 5.879713 a 1.0567373,1.2719721 0 0 0 1.056737,1.271972 z m 10.49739,0 h 4.884785 a 1.0567373,1.2719721 0 0 0 1.056737,-1.271972 v -5.879713 a 1.0567373,1.2719721 0 0 0 -1.056737,-1.271974 h -4.884785 a 1.0567373,1.2719721 0 0 0 -1.056737,1.271974 v 5.879713 a 1.0567373,1.2719721 0 0 0 1.056737,1.271972 z m 10.497389,0 h 4.884788 a 1.0567373,1.2719721 0 0 0 1.056737,-1.271972 v -5.879713 a 1.0567373,1.2719721 0 0 0 -1.056737,-1.271974 h -4.884788 a 1.0567373,1.2719721 0 0 0 -1.056734,1.271974 v 5.879713 a 1.0567373,1.2719721 0 0 0 1.056734,1.271972 z M 58.22613,11.546835 h -4.884786 a 1.0567373,1.2719721 0 0 0 -1.056738,1.271974 v 5.879713 a 1.0567373,1.2719721 0 0 0 1.056738,1.271972 h 4.884786 a 1.0567373,1.2719721 0 0 0 1.056736,-1.271972 V 12.818809 A 1.0567373,1.2719721 0 0 0 58.22613,11.546835 Z m 10.49739,0 h -4.884788 a 1.0567373,1.2719721 0 0 0 -1.056737,1.271974 v 5.879713 a 1.0567373,1.2719721 0 0 0 1.056737,1.271972 h 4.884788 a 1.0567373,1.2719721 0 0 0 1.056739,-1.271972 V 12.818809 A 1.0567373,1.2719721 0 0 0 68.72352,11.546835 Z M 16.236568,24.182322 h -4.884787 a 1.0567373,1.2719721 0 0 0 -1.056736,1.271972 v 5.879711 a 1.0567373,1.2719721 0 0 0 1.056736,1.271974 h 4.884787 a 1.0567373,1.2719721 0 0 0 1.056735,-1.271974 v -5.879711 a 1.0567373,1.2719721 0 0 0 -1.056735,-1.271972 z m 5.612604,8.423657 h 4.884785 a 1.0567373,1.2719721 0 0 0 1.056736,-1.271974 v -5.879711 a 1.0567373,1.2719721 0 0 0 -1.056736,-1.271972 h -4.884785 a 1.0567373,1.2719721 0 0 0 -1.056737,1.271972 v 5.879711 a 1.0567373,1.2719721 0 0 0 1.056737,1.271974 z m 10.49739,0 h 4.884785 a 1.0567373,1.2719721 0 0 0 1.056737,-1.271974 v -5.879711 a 1.0567373,1.2719721 0 0 0 -1.056737,-1.271972 h -4.884785 a 1.0567373,1.2719721 0 0 0 -1.056737,1.271972 v 5.879711 a 1.0567373,1.2719721 0 0 0 1.056737,1.271974 z m 10.497389,0 h 4.884788 a 1.0567373,1.2719721 0 0 0 1.056737,-1.271974 v -5.879711 a 1.0567373,1.2719721 0 0 0 -1.056737,-1.271972 h -4.884788 a 1.0567373,1.2719721 0 0 0 -1.056734,1.271972 v 5.879711 a 1.0567373,1.2719721 0 0 0 1.056734,1.271974 z M 58.22613,24.182322 h -4.884786 a 1.0567373,1.2719721 0 0 0 -1.056738,1.271972 v 5.879711 a 1.0567373,1.2719721 0 0 0 1.056738,1.271974 h 4.884786 a 1.0567373,1.2719721 0 0 0 1.056736,-1.271974 V 25.454294 A 1.0567373,1.2719721 0 0 0 58.22613,24.182322 Z m 10.49739,0 h -4.884788 a 1.0567373,1.2719721 0 0 0 -1.056737,1.271972 v 5.879711 a 1.0567373,1.2719721 0 0 0 1.056737,1.271974 h 4.884788 a 1.0567373,1.2719721 0 0 0 1.056739,-1.271974 V 25.454294 A 1.0567373,1.2719721 0 0 0 68.72352,24.182322 Z M 16.236568,36.817805 h -4.884787 a 1.0567373,1.2719721 0 0 0 -1.056736,1.271974 v 5.879712 a 1.0567373,1.2719721 0 0 0 1.056736,1.271973 h 4.884787 a 1.0567373,1.2719721 0 0 0 1.056735,-1.271973 v -5.879712 a 1.0567373,1.2719721 0 0 0 -1.056735,-1.271974 z m 52.486952,0 h -4.884788 a 1.0567373,1.2719721 0 0 0 -1.056737,1.271974 v 5.879712 a 1.0567373,1.2719721 0 0 0 1.056737,1.271973 h 4.884788 a 1.0567373,1.2719721 0 0 0 1.056739,-1.271973 V 38.089779 A 1.0567373,1.2719721 0 0 0 68.72352,36.817805 Z m -10.504389,0 h -36.36296 a 1.0637356,1.2803958 0 0 0 -1.063736,1.280398 v 5.862863 a 1.0637356,1.2803958 0 0 0 1.063736,1.280398 h 36.36296 a 1.0637356,1.2803958 0 0 0 1.063735,-1.280398 v -5.862863 a 1.0637356,1.2803958 0 0 0 -1.063735,-1.280398 z"
     fill="#F14D4D"
     id="path2"
     style="stroke-width:3.83898" />
</svg>
